<svg xmlns="http://www.w3.org/2000/svg" viewBox="0 0 1273 1273"><defs><style>.cls-1{fill:#fff;}.cls-2,.cls-6{fill:#94938f;}.cls-3,.cls-4,.cls-5,.cls-7{fill:none;}.cls-3,.cls-4,.cls-7{stroke:#94938f;}.cls-3,.cls-4,.cls-5,.cls-6,.cls-7{stroke-miterlimit:10;}.cls-3{stroke-width:10px;}.cls-4{stroke-width:4px;}.cls-5,.cls-6{stroke:#fff;}</style></defs><title>Holz_2_beschriftet</title><g id="Ebene_1" data-name="Ebene 1"><path class="cls-1" d="M959,1019.5a402.27,402.27,0,1,1,157.06-31.71A401,401,0,0,1,959,1019.5Z" transform="translate(-322 97)"/><path d="M959,213a401.68,401.68,0,1,1-156.87,31.67A400.58,400.58,0,0,1,959,213m0-1c-223.12,0-404,180.88-404,404s180.88,404,404,404,404-180.88,404-404S1182.12,212,959,212Z" transform="translate(-322 97)"/><path class="cls-2" d="M1226,962.82A497.69,497.69,0,0,1,959,1040c-276.14,0-500-223.86-500-500S682.86,40,959,40s500,223.86,500,500c0,178-93,334.21-233,422.82" transform="translate(-322 97)"/><circle class="cls-3" cx="637" cy="637" r="500"/><line class="cls-2" x1="802.07" y1="1109.1" x2="883" y2="562"/><line class="cls-2" x1="403" y1="1088" x2="403" y2="1078.44"/><path class="cls-4" d="M1227,390" transform="translate(-322 97)"/><path class="cls-2" d="M584.8,871.63" transform="translate(-322 97)"/><path class="cls-1" d="M1089.5,352.5v-25l105-80s42-31,54,25,16,158,16,158,2,28-25,42-138,50-138,50l-.08-.21-19.12,46.1-10.42-24.2-28.77,52-10-23.26-32.53,53.63-9.64-22.37-28.38,49.15L953.37,632l-25.84,46.16-8.82-20.47-21.44,41.93-8.5-19.73-23.12,42.16-8.17-19L834.75,744l-7.85-18.22-21.69,39.18-7.54-17.51L777,784.93l-7.25-16.83-21,36.88-7-16.14L722,824.19,710.52,812l-16.77,32-8.22-117.31,403.69-374.59" transform="translate(-322 97)"/><path class="cls-2" d="M1117.5,352.5l6.37,132,80-30s20-5,22.74-36c2.26-25.77-2.78-89.57-4.54-110.34-.45-5.36-.57-9.08-4.08-13.16-6.68-7.76-15-11-31,2C1161.94,317.36,1117.5,352.5,1117.5,352.5Z" transform="translate(-322 97)"/><path d="M483.25,133.58l3.64-4.58a1.49,1.49,0,0,1,2.37-.28l68.62,54.49a1.49,1.49,0,0,1,.27,2.37l-3.63,4.58a1.5,1.5,0,0,1-2.38.28l-30.85-24.5a.57.57,0,0,0-.91.11l-25.63,32.27a.57.57,0,0,0,.11.91l30.85,24.5a1.49,1.49,0,0,1,.27,2.37l-3.64,4.58A1.49,1.49,0,0,1,520,231l-68.62-54.49a1.49,1.49,0,0,1-.27-2.37l3.63-4.59a1.5,1.5,0,0,1,2.38-.27l30.44,24.17a.57.57,0,0,0,.91-.1L514.07,161a.58.58,0,0,0-.11-.92L483.52,136A1.49,1.49,0,0,1,483.25,133.58Z" transform="translate(-322 97)"/><path d="M580.71,158.54a26.6,26.6,0,0,1-15.16-.35A31.56,31.56,0,0,1,552,149.25l-22.34-24a31.8,31.8,0,0,1-8-14.17A26.64,26.64,0,0,1,522.39,96a33.78,33.78,0,0,1,9.32-13.84,34.22,34.22,0,0,1,14.5-8.37,26.5,26.5,0,0,1,15.21.31A31.65,31.65,0,0,1,575,83l22.34,24a31.72,31.72,0,0,1,8,14.17,26.54,26.54,0,0,1-.76,15.19,34.3,34.3,0,0,1-9.37,13.89A33.83,33.83,0,0,1,580.71,158.54Zm16.58-29.31q.3-8.46-6.44-15.68L568.16,89.2q-6.74-7.22-15.23-7.57T537.2,88q-7.12,6.66-7.38,15.15t6.48,15.73L559,143.24q6.74,7.23,15.19,7.53t15.59-6.35Q597,137.69,597.29,129.23Z" transform="translate(-322 97)"/><path d="M631.54,115,581.29,43.26a1.49,1.49,0,0,1,.42-2.35l4.79-3.36a1.5,1.5,0,0,1,2.35.42l46.22,66a.58.58,0,0,0,.91.16l37.17-26a1.5,1.5,0,0,1,2.35.42l2.69,3.83a1.51,1.51,0,0,1-.42,2.36l-43.88,30.71A1.48,1.48,0,0,1,631.54,115Z" transform="translate(-322 97)"/><path d="M685.63,78.06l-2.58-5a3.83,3.83,0,0,1-.38-2.14l8.44-86.42c0-.58-.24-.75-.7-.51L649.68,5.18a1.49,1.49,0,0,1-2.28-.72L645.25.3A1.49,1.49,0,0,1,646-2l49-25.46a1.49,1.49,0,0,1,2.28.72l2.57,5a4,4,0,0,1,.39,2.15l-8.33,86.36c0,.58.24.75.7.51l40.61-21.09a1.49,1.49,0,0,1,2.28.72L737.66,51a1.49,1.49,0,0,1-.72,2.28l-49,25.46A1.48,1.48,0,0,1,685.63,78.06Z" transform="translate(-322 97)"/><circle class="cls-5" cx="636.5" cy="636.5" r="636"/></g><g id="Nadel"><g id="Ebene_2" data-name="Ebene 2"><path class="cls-6" d="M902.5,272.5" transform="translate(-322 97)"/><path class="cls-6" d="M959.5,316.5" transform="translate(-322 97)"/></g></g><g id="Fadenschatten"><path class="cls-7" d="M1041.92,69.09c-6.92,6.91-7.57,7.68-7.57,7.68" transform="translate(-322 97)"/></g></svg>