<svg xmlns="http://www.w3.org/2000/svg" viewBox="0 0 1010 1010"><defs><style>.cls-1{fill:#fff;}.cls-2,.cls-6{fill:#94938f;}.cls-3,.cls-4,.cls-5,.cls-7{fill:none;}.cls-3,.cls-5,.cls-7{stroke:#94938f;}.cls-3,.cls-5,.cls-6,.cls-7{stroke-miterlimit:10;}.cls-3{stroke-width:10px;}.cls-5{stroke-width:4px;}.cls-6{stroke:#fff;}</style></defs><title>Holz_1</title><g id="Ebene_1" data-name="Ebene 1"><path class="cls-1" d="M959,1019.5a402.27,402.27,0,1,1,157.06-31.71A401,401,0,0,1,959,1019.5Z" transform="translate(-454 -35)"/><path d="M959,213a401.68,401.68,0,1,1-156.87,31.67A400.58,400.58,0,0,1,959,213m0-1c-223.12,0-404,180.88-404,404s180.88,404,404,404,404-180.88,404-404S1182.12,212,959,212Z" transform="translate(-454 -35)"/><path class="cls-2" d="M1226,962.82A497.69,497.69,0,0,1,959,1040c-276.14,0-500-223.86-500-500S682.86,40,959,40s500,223.86,500,500c0,178-93,334.21-233,422.82" transform="translate(-454 -35)"/><circle class="cls-3" cx="505" cy="505" r="500"/><line class="cls-2" x1="670.07" y1="977.1" x2="751" y2="430"/><line class="cls-2" x1="271" y1="956" x2="271" y2="946.44"/><path class="cls-4" d="M1400.93,774.15c-84,158.11-250.35,265.78-441.86,265.78-276.14,0-500-223.86-500-500s223.86-500,500-500c177.66,0,333.68,92.66,422.36,232.28" transform="translate(-454 -35)"/><path class="cls-5" d="M1227,390" transform="translate(-454 -35)"/><path class="cls-2" d="M584.8,871.63" transform="translate(-454 -35)"/><path class="cls-1" d="M1089.5,352.5v-25l105-80s42-31,54,25,16,158,16,158,2,28-25,42-138,50-138,50l-.08-.21-19.12,46.1-10.42-24.2-28.77,52-10-23.26-32.53,53.63-9.64-22.37-28.38,49.15L953.37,632l-25.84,46.16-8.82-20.47-21.44,41.93-8.5-19.73-23.12,42.16-8.17-19L834.75,744l-7.85-18.22-21.69,39.18-7.54-17.51L777,784.93l-7.25-16.83-21,36.88-7-16.14L722,824.19,710.52,812l-16.77,32-8.22-117.31,403.69-374.59" transform="translate(-454 -35)"/><path class="cls-2" d="M1117.5,352.5l6.37,132,80-30s20-5,22.74-36c2.26-25.77-2.78-89.57-4.54-110.34-.45-5.36-.57-9.08-4.08-13.16-6.68-7.76-15-11-31,2C1161.94,317.36,1117.5,352.5,1117.5,352.5Z" transform="translate(-454 -35)"/></g><g id="Nadel"><g id="Ebene_2" data-name="Ebene 2"><path class="cls-6" d="M902.5,272.5" transform="translate(-454 -35)"/><path class="cls-6" d="M959.5,316.5" transform="translate(-454 -35)"/></g></g><g id="Fadenschatten"><path class="cls-7" d="M1041.92,69.09c-6.92,6.91-7.57,7.68-7.57,7.68" transform="translate(-454 -35)"/></g></svg>