<svg xmlns="http://www.w3.org/2000/svg" viewBox="0 0 1010 1010"><defs><style>.cls-1{fill:#fff;}.cls-2,.cls-4{fill:#94938f;}.cls-3,.cls-5{fill:none;stroke:#94938f;}.cls-3,.cls-4,.cls-5{stroke-miterlimit:10;}.cls-3{stroke-width:10px;}.cls-4{stroke:#fff;}</style></defs><title>Keramik_Porzellan_2</title><g id="Ebene_1" data-name="Ebene 1"><path class="cls-1" d="M959,1019.5a402.27,402.27,0,1,1,157.06-31.71A401,401,0,0,1,959,1019.5Z" transform="translate(-454 -35)"/><path d="M959,213a401.68,401.68,0,1,1-156.87,31.67A400.58,400.58,0,0,1,959,213m0-1c-223.12,0-404,180.88-404,404s180.88,404,404,404,404-180.88,404-404S1182.12,212,959,212Z" transform="translate(-454 -35)"/><circle class="cls-2" cx="506" cy="505" r="500"/><circle class="cls-3" cx="505" cy="505" r="500"/></g><g id="Nadel"><g id="Ebene_2" data-name="Ebene 2"><path class="cls-4" d="M902.5,272.5" transform="translate(-454 -35)"/><path class="cls-4" d="M959.5,316.5" transform="translate(-454 -35)"/></g></g><g id="Fadenschatten"><path class="cls-5" d="M1041.92,69.09c-6.92,6.91-7.57,7.68-7.57,7.68" transform="translate(-454 -35)"/><path class="cls-1" d="M1266.65,503.53s21.41-47.47,65.91-23.55c7.52,4,24.43,18.6,26.74,32.19,7,41.14-15.74,84.64-58.4,125.92-39.93,38.65-88,61.18-88,61.18" transform="translate(-454 -35)"/><path class="cls-2" d="M1264,533.9c.08-.38-.7,6.09-.65,5.7,1.17-9.44,25.47-53.64,52.47-38.15,4.86,2.79,15.79,12.84,17.29,22.22,4.53,28.39-10.18,58.41-37.76,86.9-18.18,18.79-39,32.06-49.7,38.27-2.85,1.65-6.08-1.29-5.32-4.83l15.31-58.28Z" transform="translate(-454 -35)"/><path class="cls-1" d="M1265.86,443c19.86,341.61-220.75,374-220.75,374H876.92S636.31,784.58,656.17,443l.58.62c0-43.38,136.23-78.54,304.27-78.54s304.26,35.16,304.26,78.54" transform="translate(-454 -35)"/><ellipse class="cls-2" cx="507.15" cy="404.63" rx="263.05" ry="52.58"/></g></svg>