<svg xmlns="http://www.w3.org/2000/svg" viewBox="0 0 1273 1273"><defs><style>.cls-1{fill:#fff;}.cls-2,.cls-4{fill:#94938f;}.cls-3,.cls-5,.cls-6{fill:none;}.cls-3,.cls-5{stroke:#94938f;}.cls-3,.cls-4,.cls-5,.cls-6{stroke-miterlimit:10;}.cls-3{stroke-width:10px;}.cls-4,.cls-6{stroke:#fff;}</style></defs><title>Keramik_Porzellan_beschriftet</title><g id="Ebene_1" data-name="Ebene 1"><path class="cls-1" d="M959,1019.5a402.27,402.27,0,1,1,157.06-31.71A401,401,0,0,1,959,1019.5Z" transform="translate(-322 96)"/><path d="M959,213a401.68,401.68,0,1,1-156.87,31.67A400.58,400.58,0,0,1,959,213m0-1c-223.12,0-404,180.88-404,404s180.88,404,404,404,404-180.88,404-404S1182.12,212,959,212Z" transform="translate(-322 96)"/><circle class="cls-2" cx="638" cy="636" r="500"/><circle class="cls-3" cx="637" cy="636" r="500"/></g><g id="Nadel"><g id="Ebene_2" data-name="Ebene 2"><path class="cls-4" d="M902.5,272.5" transform="translate(-322 96)"/><path class="cls-4" d="M959.5,316.5" transform="translate(-322 96)"/></g></g><g id="Fadenschatten"><path class="cls-5" d="M1041.92,69.09c-6.92,6.91-7.57,7.68-7.57,7.68" transform="translate(-322 96)"/><path class="cls-1" d="M1266.65,503.53s21.41-47.47,65.91-23.55c7.52,4,24.43,18.6,26.74,32.19,7,41.14-15.74,84.64-58.4,125.92-39.93,38.65-88,61.18-88,61.18" transform="translate(-322 96)"/><path class="cls-2" d="M1264,533.9c.08-.38-.7,6.09-.65,5.7,1.17-9.44,25.47-53.64,52.47-38.15,4.86,2.79,15.79,12.84,17.29,22.22,4.53,28.39-10.18,58.41-37.76,86.9-18.18,18.79-39,32.06-49.7,38.27-2.85,1.65-6.08-1.29-5.32-4.83l15.31-58.28Z" transform="translate(-322 96)"/><path class="cls-1" d="M1265.86,443c19.86,341.61-220.75,374-220.75,374H876.92S636.31,784.58,656.17,443l.58.62c0-43.38,136.23-78.54,304.27-78.54s304.26,35.16,304.26,78.54" transform="translate(-322 96)"/><ellipse class="cls-2" cx="639.15" cy="535.63" rx="263.05" ry="52.58"/><path d="M450.28,369.2l-81.44-32.32a1.5,1.5,0,0,1-.95-2.2l2.16-5.44a1.49,1.49,0,0,1,2.19-.94l40.36,16a.52.52,0,0,0,.58-.05c.14-.13.12-.32-.05-.58l-26.27-54.34a2.61,2.61,0,0,1-.08-2.27l2.4-6c.35-.88.85-1.2,1.49-.94a1.43,1.43,0,0,1,.78.86l21.43,42.22c.23.36.49.52.8.45l59.49-13.17a1.74,1.74,0,0,1,1.11,0c.65.26.79.83.44,1.71l-2.49,6.29a2.49,2.49,0,0,1-1.74,1.55l-52.95,11.85c-.61.13-.77.39-.46.8l7.46,16.1a2,2,0,0,0,.75.58l28.39,11.27a1.49,1.49,0,0,1,.95,2.19l-2.16,5.44A1.49,1.49,0,0,1,450.28,369.2Z" transform="translate(-322 96)"/><path d="M438.32,208l-23.58,41a.57.57,0,0,0,.24.89l27.61,15.87a.57.57,0,0,0,.89-.24l16.46-28.63a1.49,1.49,0,0,1,2.3-.62l4.06,2.33a1.5,1.5,0,0,1,.62,2.31l-16.45,28.63a.57.57,0,0,0,.24.89l28.06,16.13a.58.58,0,0,0,.89-.24l23.58-41a1.5,1.5,0,0,1,2.31-.62l4.06,2.33a1.5,1.5,0,0,1,.62,2.31l-27.66,48.12a1.5,1.5,0,0,1-2.31.63l-76-43.66a1.5,1.5,0,0,1-.62-2.31L431.33,204a1.5,1.5,0,0,1,2.31-.62l4.06,2.33A1.5,1.5,0,0,1,438.32,208Z" transform="translate(-322 96)"/><path d="M551.68,192.42l-43.22-9.76a.83.83,0,0,0-.89.29L494.18,200a.58.58,0,0,0,.11.92l31.1,24.38a1.49,1.49,0,0,1,.29,2.37l-3.61,4.6a1.49,1.49,0,0,1-2.37.29l-69.06-54.13a1.49,1.49,0,0,1-.29-2.37l20.53-26.2q6.9-8.79,16.57-10t18.47,5.73A24.38,24.38,0,0,1,515,159a22.72,22.72,0,0,1-1.72,15.58c-.2.39-.08.66.37.78l43.26,9.3a2,2,0,0,1,.77.28c.61.48.6,1.13,0,1.95l-3.69,4.7A2.19,2.19,0,0,1,551.68,192.42Zm-89.82-16.9,25.57,20a.57.57,0,0,0,.92-.11l14.83-18.92q4.65-5.94,3.91-12.47t-6.68-11.18a16.77,16.77,0,0,0-12.56-3.9,16.45,16.45,0,0,0-11.27,6.69l-14.84,18.93A.57.57,0,0,0,461.86,175.52Z" transform="translate(-322 96)"/><path d="M610.22,133.67l-14.65-8a.75.75,0,0,0-.83.06l-28.22,26.54a.76.76,0,0,0-.12.82l7.17,15a1.74,1.74,0,0,1-.35,2.29l-4.54,4.27a1.5,1.5,0,0,1-1.31.51,1.57,1.57,0,0,1-1.07-.95L527.12,90.82a1.72,1.72,0,0,1,.35-2.28l6.06-5.7a1.73,1.73,0,0,1,2.3-.21l80.95,44.16a1.49,1.49,0,0,1,.54.38,1.15,1.15,0,0,1,.29,1,1.64,1.64,0,0,1-.53,1l-4.55,4.27A1.73,1.73,0,0,1,610.22,133.67Zm-46.88,11.24L587.68,122c.38-.36.33-.66-.15-.93L538.8,93.94c-.3-.19-.52-.23-.64-.11s-.11.34.07.65l24.2,50.22C562.72,145.14,563,145.21,563.34,144.91Z" transform="translate(-322 96)"/><path d="M628.42,117.82,578.94,45.51a1.49,1.49,0,0,1,.44-2.35l5-3.45a2.29,2.29,0,0,1,2.27-.13l40.85,17.57c.51.28.73.13.65-.44l-1.48-44.52a2.3,2.3,0,0,1,.95-2.06l5-3.45a1.49,1.49,0,0,1,2.35.44l49.48,72.31a1.49,1.49,0,0,1-.44,2.35l-4.83,3.3a1.49,1.49,0,0,1-2.35-.44L636.39,25.42c-.19-.29-.37-.38-.51-.28s-.21.3-.21.61l1.4,38.42a2.28,2.28,0,0,1-.94,2.07l-2.47,1.69a2.29,2.29,0,0,1-2.27.13L596.08,52.84a.68.68,0,0,0-.65,0c-.14.1-.11.29.08.58L636,112.61a1.5,1.5,0,0,1-.44,2.35l-4.83,3.3A1.49,1.49,0,0,1,628.42,117.82Z" transform="translate(-322 96)"/><path d="M704.9,69.1,664-8.39a1.49,1.49,0,0,1,.71-2.28l5.17-2.74a1.5,1.5,0,0,1,2.28.71l40.89,77.49a1.5,1.5,0,0,1-.7,2.29l-5.17,2.73A1.5,1.5,0,0,1,704.9,69.1Z" transform="translate(-322 96)"/><path d="M733.45,54,700.77-27.25a1.49,1.49,0,0,1,.94-2.2l5.42-2.18a1.49,1.49,0,0,1,2.2.93l16.2,40.29A.53.53,0,0,0,726,10c.19,0,.32-.13.39-.44l21.29-56.48a2.63,2.63,0,0,1,1.59-1.62l6-2.42c.88-.35,1.46-.21,1.72.43a1.56,1.56,0,0,1-.1,1.16L741.05-4.77a.75.75,0,0,0,.22.89L791.8,30.17a1.72,1.72,0,0,1,.75.82c.26.64,0,1.14-.94,1.49L785.34,35a2.46,2.46,0,0,1-2.32-.18L738,4.6c-.52-.36-.81-.28-.89.22l-6.54,16.49a2.1,2.1,0,0,0,.1,1L742,50.6a1.49,1.49,0,0,1-.93,2.2L735.65,55A1.49,1.49,0,0,1,733.45,54Z" transform="translate(-322 96)"/><circle class="cls-6" cx="636.5" cy="636.5" r="636"/></g></svg>