<svg xmlns="http://www.w3.org/2000/svg" viewBox="0 0 1010 1010"><defs><style>.cls-1{fill:#fff;}.cls-2,.cls-4{fill:#94938f;}.cls-3,.cls-5{fill:none;stroke:#94938f;}.cls-3,.cls-4,.cls-5{stroke-miterlimit:10;}.cls-3{stroke-width:10px;}.cls-4{stroke:#fff;}</style></defs><title>Keramik_Porzellan_1</title><g id="Ebene_1" data-name="Ebene 1"><path class="cls-1" d="M959,1019.5a402.27,402.27,0,1,1,157.06-31.71A401,401,0,0,1,959,1019.5Z" transform="translate(-454 -35)"/><path d="M959,213a401.68,401.68,0,1,1-156.87,31.67A400.58,400.58,0,0,1,959,213m0-1c-223.12,0-404,180.88-404,404s180.88,404,404,404,404-180.88,404-404S1182.12,212,959,212Z" transform="translate(-454 -35)"/><circle class="cls-2" cx="506" cy="505" r="500"/><circle class="cls-3" cx="505" cy="505" r="500"/></g><g id="Nadel"><g id="Ebene_2" data-name="Ebene 2"><path class="cls-4" d="M902.5,272.5" transform="translate(-454 -35)"/><path class="cls-4" d="M959.5,316.5" transform="translate(-454 -35)"/></g></g><g id="Fadenschatten"><path class="cls-5" d="M1041.92,69.09c-6.92,6.91-7.57,7.68-7.57,7.68" transform="translate(-454 -35)"/><path class="cls-1" d="M1212.08,531.37s18.44-40.9,56.79-20.29c6.49,3.48,21.05,16,23.05,27.74,6,35.45-13.56,72.94-50.33,108.51-34.41,33.3-75.86,52.72-75.86,52.72" transform="translate(-454 -35)"/><path class="cls-2" d="M1209.75,557.55c.07-.33-.6,5.24-.56,4.9,1-8.13,22-46.22,45.21-32.87,4.19,2.4,13.61,11.06,14.9,19.15,3.91,24.46-8.77,50.33-32.53,74.88-15.67,16.2-33.61,27.63-42.83,33-2.46,1.42-5.24-1.11-4.59-4.16l13.19-50.23Z" transform="translate(-454 -35)"/><path class="cls-1" d="M1211.4,479.19c17.11,294.38-190.23,322.31-190.23,322.31H876.23S668.9,773.57,686,479.19l.5.54C686.51,442.34,803.9,412,948.7,412s262.2,30.3,262.2,67.69" transform="translate(-454 -35)"/><ellipse class="cls-2" cx="494.82" cy="441.31" rx="226.68" ry="45.31"/></g></svg>