<?xml version="1.0" encoding="utf-8"?>
<!-- Generator: Adobe Illustrator 22.0.0, SVG Export Plug-In . SVG Version: 6.00 Build 0)  -->
<svg version="1.1" xmlns="http://www.w3.org/2000/svg" xmlns:xlink="http://www.w3.org/1999/xlink" x="0px" y="0px"
	 viewBox="0 0 1920 1080" style="enable-background:new 0 0 1920 1080;" xml:space="preserve">
<style type="text/css">
	.st0{fill:#FFFFFF;}
	.st1{fill:#94938F;}
	.st2{fill:none;stroke:#94938F;stroke-width:10;stroke-miterlimit:10;}
	.st3{fill:#94938F;stroke:#FFFFFF;stroke-miterlimit:10;}
	.st4{fill:#FFFFFF;stroke:#FFFFFF;stroke-miterlimit:10;}
	.st5{fill:#FFFFFF;stroke:#94938F;stroke-width:10;stroke-miterlimit:10;}
	.st6{fill:none;stroke:#94938F;stroke-miterlimit:10;}
</style>
<g id="Ebene_1">
	<g>
		<path class="st0" d="M959,1019.5c-54.5,0-107.3-10.7-157.1-31.7c-48-20.3-91.2-49.4-128.3-86.5c-37.1-37.1-66.2-80.2-86.5-128.3
			c-21-49.7-31.7-102.6-31.7-157.1s10.7-107.3,31.7-157.1c20.3-48,49.4-91.2,86.5-128.3c37.1-37.1,80.2-66.2,128.3-86.5
			c49.7-21,102.6-31.7,157.1-31.7c54.5,0,107.3,10.7,157.1,31.7c48,20.3,91.2,49.4,128.3,86.5c37.1,37.1,66.2,80.2,86.5,128.3
			c21,49.7,31.7,102.6,31.7,157.1s-10.7,107.3-31.7,157.1c-20.3,48-49.4,91.2-86.5,128.3s-80.2,66.2-128.3,86.5
			C1066.3,1008.8,1013.5,1019.5,959,1019.5z"/>
		<path d="M959,213c54.4,0,107.2,10.7,156.9,31.7c48,20.3,91.1,49.4,128.1,86.4c37,37,66.1,80.1,86.4,128.1
			c21,49.7,31.7,102.5,31.7,156.9s-10.7,107.2-31.7,156.9C1310,820.9,1281,864,1244,901c-37,37-80.1,66.1-128.1,86.4
			c-49.7,21-102.5,31.7-156.9,31.7s-107.2-10.7-156.9-31.7C754.1,967,711,938,674,901c-37-37-66.1-80.1-86.4-128.1
			C566.7,723.2,556,670.4,556,616s10.7-107.2,31.7-156.9C608,411.1,637,368,674,331c37-37,80.1-66.1,128.1-86.4
			C851.8,223.7,904.6,213,959,213 M959,212c-223.1,0-404,180.9-404,404s180.9,404,404,404s404-180.9,404-404S1182.1,212,959,212
			L959,212z"/>
	</g>
	<g>
		<circle class="st1" cx="960" cy="540" r="500"/>
	</g>
	<circle class="st2" cx="959" cy="540" r="500"/>
</g>
<g id="Nadel">
	<g id="Ebene_2">
		<path class="st3" d="M902.5,272.5"/>
		<path class="st3" d="M959.5,316.5"/>
		<g>
			<path class="st4" d="M1070.2,324.3L806.4,927l247.3-609.7 M1070.2,324.3c7.2-10.6,15.6-26.3,23.3-44.4
				c14.8-35.1,21.4-65.9,14.7-68.7c-6.7-2.8-24.1,23.4-38.9,58.5c-7.6,18.1-13,35.1-15.6,47.7"/>
			
				<ellipse transform="matrix(0.3884 -0.9215 0.9215 0.3884 410.3623 1163.9745)" class="st3" cx="1082.1" cy="272.8" rx="62.2" ry="9.2"/>
		</g>
	</g>
</g>
<g id="Faden">
	<g id="Ebene_6">
	</g>
	<path class="st5" d="M610,187.8c96.9,4.3,425.9,25.4,468,99.2l11-28c0,0-59.8-76.4-460.5-89c0,0-4.1,3.2-11,10.1
		C610.6,187,610,187.8,610,187.8z"/>
</g>
<g id="Fadenschatten">
	<path class="st6" d="M1041.9,69.1c-6.9,6.9-7.6,7.7-7.6,7.7"/>
	<path class="st5" d="M1105,272c3,6,153.5,162.5,341.5,168.5c0,0,5,11,5,22c0,0-217.5,0.5-357.5-166.5L1105,272z"/>
	<g>
	</g>
	<g>
	</g>
	<g>
	</g>
	<g>
	</g>
	<g>
	</g>
	<g>
	</g>
	<g>
	</g>
	<g>
	</g>
	<g>
	</g>
	<g>
	</g>
	<g>
	</g>
	<g>
	</g>
	<g>
	</g>
	<g>
	</g>
	<g>
	</g>
</g>
</svg>
