<?xml version="1.0" encoding="utf-8"?>
<!-- Generator: Adobe Illustrator 22.0.0, SVG Export Plug-In . SVG Version: 6.00 Build 0)  -->
<svg version="1.1" xmlns="http://www.w3.org/2000/svg" xmlns:xlink="http://www.w3.org/1999/xlink" x="0px" y="0px"
	 viewBox="0 0 1920 1080" style="enable-background:new 0 0 1920 1080;" xml:space="preserve">
<style type="text/css">
	.st0{fill:#FFFFFF;}
	.st1{fill:#94938F;}
	.st2{fill:#94938F;stroke:#FFFFFF;stroke-miterlimit:10;}
	.st3{fill:#FFFFFF;stroke:#FFFFFF;stroke-miterlimit:10;}
	.st4{fill:#FFFFFF;stroke:#94938F;stroke-width:5;stroke-miterlimit:10;}
	.st5{fill:none;stroke:#94938F;stroke-miterlimit:10;}
</style>
<g id="Ebene_1">
	<g>
		<path class="st0" d="M727,997.5c-54.5,0-107.3-10.7-157.1-31.7c-48-20.3-91.2-49.4-128.3-86.5c-37.1-37.1-66.2-80.2-86.5-128.3
			c-21-49.7-31.7-102.6-31.7-157.1c0-54.5,10.7-107.3,31.7-157.1c20.3-48,49.4-91.2,86.5-128.3c37.1-37.1,80.2-66.2,128.3-86.5
			c49.7-21,102.6-31.7,157.1-31.7s107.3,10.7,157.1,31.7c48,20.3,91.2,49.4,128.3,86.5c37.1,37.1,66.2,80.2,86.5,128.3
			c21,49.7,31.7,102.6,31.7,157.1c0,54.5-10.7,107.3-31.7,157.1c-20.3,48-49.4,91.2-86.5,128.3s-80.2,66.2-128.3,86.5
			C834.3,986.8,781.5,997.5,727,997.5z"/>
		<path d="M727,191c54.4,0,107.2,10.7,156.9,31.7C931.9,243,975,272,1012,309c37,37,66.1,80.1,86.4,128.1
			c21,49.7,31.7,102.5,31.7,156.9s-10.7,107.2-31.7,156.9C1078,798.9,1049,842,1012,879c-37,37-80.1,66.1-128.1,86.4
			C834.2,986.3,781.4,997,727,997s-107.2-10.7-156.9-31.7C522.1,945,479,916,442,879c-37-37-66.1-80.1-86.4-128.1
			C334.7,701.2,324,648.4,324,594s10.7-107.2,31.7-156.9C376,389.1,405,346,442,309c37-37,80.1-66.1,128.1-86.4
			C619.8,201.7,672.6,191,727,191 M727,190c-223.1,0-404,180.9-404,404s180.9,404,404,404s404-180.9,404-404S950.1,190,727,190
			L727,190z"/>
	</g>
	<g>
		<circle class="st1" cx="728" cy="518" r="500"/>
	</g>
</g>
<g id="Nadel">
	<g id="Ebene_2">
		<path class="st2" d="M670.5,250.5"/>
		<path class="st2" d="M727.5,294.5"/>
		<g>
			<path class="st3" d="M838.2,302.3L574.4,905l247.3-609.7 M838.2,302.3c7.2-10.6,15.6-26.3,23.3-44.4
				c14.8-35.1,21.4-65.9,14.7-68.7s-24.1,23.4-38.9,58.5c-7.6,18.1-13,35.1-15.6,47.7"/>
			
				<ellipse transform="matrix(0.3884 -0.9215 0.9215 0.3884 288.7528 936.7382)" class="st2" cx="850.1" cy="250.8" rx="62.2" ry="9.2"/>
		</g>
	</g>
</g>
<g id="Faden">
	<g id="Ebene_6">
	</g>
	<path class="st4" d="M379,165.8c96.9,4.3,429.4,24.4,471.5,98.2l9.5-22.8c0,0-61.8-80.6-462.5-93.2c0,0-4.1,3.2-11,10.1
		S379,165.8,379,165.8z"/>
</g>
<g id="Fadenschatten">
	<path class="st5" d="M809.9,47.1c-6.9,6.9-7.6,7.7-7.6,7.7"/>
	<path class="st4" d="M869.5,247.5c3,6,157,165,345,171c0,0,5,11,5,22c0,0-218-5-358-172L869.5,247.5z"/>
	<g>
	</g>
	<g>
	</g>
	<g>
	</g>
	<g>
	</g>
	<g>
	</g>
	<g>
	</g>
	<g>
	</g>
	<g>
	</g>
	<g>
	</g>
	<g>
	</g>
	<g>
	</g>
	<g>
	</g>
	<g>
	</g>
	<g>
	</g>
	<g>
	</g>
</g>
</svg>
