<svg xmlns="http://www.w3.org/2000/svg" viewBox="0 0 1010 1010"><defs><style>.cls-1,.cls-5,.cls-6{fill:#fff;}.cls-2,.cls-4{fill:#94938f;}.cls-3,.cls-7{fill:none;}.cls-3,.cls-6,.cls-7{stroke:#94938f;}.cls-3,.cls-4,.cls-5,.cls-6,.cls-7{stroke-miterlimit:10;}.cls-3,.cls-6{stroke-width:10px;}.cls-4,.cls-5{stroke:#fff;}</style></defs><title>Nadel_grau_4</title><g id="Ebene_1" data-name="Ebene 1"><path class="cls-1" d="M959,1019.5a402.27,402.27,0,1,1,157.06-31.71A401,401,0,0,1,959,1019.5Z" transform="translate(-454 -35)"/><path d="M959,213a401.68,401.68,0,1,1-156.87,31.67A400.58,400.58,0,0,1,959,213m0-1c-223.12,0-404,180.88-404,404s180.88,404,404,404,404-180.88,404-404S1182.12,212,959,212Z" transform="translate(-454 -35)"/><circle class="cls-2" cx="506" cy="505" r="500"/><circle class="cls-3" cx="505" cy="505" r="500"/></g><g id="Nadel"><g id="Ebene_2" data-name="Ebene 2"><path class="cls-4" d="M902.5,272.5" transform="translate(-454 -35)"/><path class="cls-4" d="M959.5,316.5" transform="translate(-454 -35)"/><path class="cls-5" d="M1070.23,324.28,806.43,927l247.26-609.67m16.54,7c7.21-10.6,15.63-26.28,23.28-44.43,14.8-35.12,21.38-65.89,14.68-68.71s-24.14,23.36-38.94,58.49c-7.65,18.14-13,35.11-15.56,47.68" transform="translate(-454 -35)"/><ellipse class="cls-4" cx="1082.1" cy="272.83" rx="62.18" ry="9.17" transform="translate(-43.64 1128.97) rotate(-67.14)"/></g></g><g id="Faden"><path class="cls-6" d="M610,187.77c96.92,4.3,425.86,25.36,468,99.23l11-28s-59.76-76.36-460.53-89a125.72,125.72,0,0,0-11,10.09C610.65,187,610,187.77,610,187.77Z" transform="translate(-454 -35)"/></g><g id="Fadenschatten"><path class="cls-7" d="M1041.92,69.09c-6.92,6.91-7.57,7.68-7.57,7.68" transform="translate(-454 -35)"/><path class="cls-6" d="M1105,272c3,6,153.5,162.5,341.5,168.5,0,0,5,11,5,22,0,0-217.5.5-357.5-166.5Z" transform="translate(-454 -35)"/></g></svg>