<svg id="Ebene_1" data-name="Ebene 1" xmlns="http://www.w3.org/2000/svg" viewBox="0 0 1010 1010"><defs><style>.cls-1,.cls-2{fill:#94938f;}.cls-2,.cls-6{stroke:#fff;}.cls-2,.cls-3,.cls-4,.cls-5,.cls-6,.cls-7,.cls-8,.cls-9{stroke-miterlimit:10;}.cls-3,.cls-5{fill:#fff;}.cls-3,.cls-4,.cls-5,.cls-8,.cls-9{stroke:#94938f;}.cls-3,.cls-6,.cls-7,.cls-9{stroke-width:5px;}.cls-4,.cls-6,.cls-7,.cls-8,.cls-9{fill:none;}.cls-5,.cls-8{stroke-width:10px;}.cls-7{stroke:#000;}</style></defs><title>Wellpappe_3</title><g id="Ebene_12" data-name="Ebene 12"><circle class="cls-1" cx="505" cy="505" r="500"/><circle class="cls-2" cx="505" cy="506" r="500"/></g><g id="Ebene_11" data-name="Ebene 11"><path class="cls-3" d="M1170.9,1003A497.34,497.34,0,0,1,959,1050c-276.1,0-500-223.9-500-500a504.62,504.62,0,0,1,9.2-95.9" transform="translate(-454 -44)"/><polyline class="cls-3" points="12.5 410.5 717.5 410.5 717.9 959"/><path class="cls-4" d="M468.2,454.1C512.9,223.8,715.7,50,959,50a499.7,499.7,0,0,1,211.4,46.7" transform="translate(-454 -44)"/><path class="cls-4" d="M1409.4,332.6A497.77,497.77,0,0,1,1459,550c0,200.4-117.9,373.2-288.1,453" transform="translate(-454 -44)"/><path class="cls-5" d="M1169.4,96.7a502,502,0,0,1,239,235.8l.1-.1L1176,498V455l-117.5-.5-130,75v128l-200,147,28-441,413-267" transform="translate(-454 -44)"/></g><g id="Ebene_1-2" data-name="Ebene 1"><path class="cls-1" d="M483.1,398.3" transform="translate(-454 -44)"/><path class="cls-6" d="M474.3,468.6" transform="translate(-454 -44)"/><path class="cls-6" d="M1105.5,450.5" transform="translate(-454 -44)"/><path class="cls-6" d="M1026.5,528.5" transform="translate(-454 -44)"/><path class="cls-6" d="M1105.5,450.5" transform="translate(-454 -44)"/><path class="cls-3" d="M1424.6,364" transform="translate(-454 -44)"/><path class="cls-7" d="M474.3,425.6" transform="translate(-454 -44)"/><line class="cls-8" x1="605.5" y1="520.8" x2="605.5" y2="989.9"/><polyline class="cls-8" points="605.5 525.8 605.5 485.4 475.5 485.4"/><path class="cls-7" d="M929.5,529.4" transform="translate(-454 -44)"/><line class="cls-8" x1="5" y1="485.4" x2="292" y2="485.5"/><path class="cls-9" d="M1129.5,482.5s-60,67,8,116c66.8,48.2,14,98,0,108-9.9,7.1-60.8,52.5,0,93,57,38,24,85,0,101-14.4,9.6-63,51,0,87l33,15.5V454.5l-111-.4" transform="translate(-454 -44)"/><line class="cls-9" x1="14" y1="410.1" x2="298" y2="410.5"/><path class="cls-7" d="M911.5,269.5" transform="translate(-454 -44)"/><path class="cls-7" d="M849.5,269.5" transform="translate(-454 -44)"/><path class="cls-7" d="M821.5,269.5" transform="translate(-454 -44)"/><path class="cls-7" d="M874,617" transform="translate(-454 -44)"/><path class="cls-7" d="M922,454.1" transform="translate(-454 -44)"/><line class="cls-9" x1="560.5" y1="434.5" x2="572.5" y2="143.5"/><path class="cls-7" d="M1220.4,460.7" transform="translate(-454 -44)"/><line class="cls-9" x1="699.5" y1="406.5" x2="716.5" y2="52.5"/><line class="cls-9" x1="932.5" y1="381" x2="940.5" y2="259.5"/><line class="cls-9" x1="605.5" y1="485.5" x2="716.5" y2="410.5"/><line class="cls-9" x1="823.5" y1="496.5" x2="840.5" y2="142.5"/></g><g id="Ebene_10" data-name="Ebene 10"><line class="cls-9" x1="415.5" y1="659.5" x2="438.5" y2="237.5"/><path class="cls-7" d="M1042.3,180" transform="translate(-454 -44)"/><path class="cls-7" d="M1065.8,164.7" transform="translate(-454 -44)"/><path class="cls-7" d="M1197,476.6" transform="translate(-454 -44)"/><path class="cls-7" d="M1137.9,476.6" transform="translate(-454 -44)"/><path class="cls-7" d="M458.5,482.4" transform="translate(-454 -44)"/><line class="cls-9" x1="296" y1="438.4" x2="11.5" y2="438.4"/><line class="cls-9" x1="556.6" y1="438.4" x2="675.1" y2="438.4"/><path class="cls-7" d="M285.5,499.4" transform="translate(-454 -44)"/><line class="cls-9" x1="294.6" y1="455.4" x2="7.4" y2="455.4"/><path class="cls-7" d="M748.6,499.4" transform="translate(-454 -44)"/><polyline class="cls-9" points="527.3 455.4 650 455.4 650.5 985"/><path class="cls-7" d="M1129.5,482.5" transform="translate(-454 -44)"/><path class="cls-7" d="M1137.5,971.5" transform="translate(-454 -44)"/><path class="cls-9" d="M1103.5,499.5s-44,33-44,49.5,0,32.5,22,37.5,34,40,0,55c-31.5,13.9-21.2,50.2,0,56,22,6,36,48,0,58-33.9,9.4-20.6,49,0,49,22,0,36,45,0,49s-22.7,50,0,48c23-2,33,49,0,54-32.8,5-28,53,22,58" transform="translate(-454 -44)"/><circle class="cls-8" cx="505" cy="505" r="500"/></g></svg>