<?xml version="1.0" encoding="utf-8"?>
<!-- Generator: Adobe Illustrator 22.0.0, SVG Export Plug-In . SVG Version: 6.00 Build 0)  -->
<svg version="1.1" xmlns="http://www.w3.org/2000/svg" xmlns:xlink="http://www.w3.org/1999/xlink" x="0px" y="0px"
	 viewBox="0 0 1920 1080" style="enable-background:new 0 0 1920 1080;" xml:space="preserve">
<style type="text/css">
	.st0{fill:#94938F;}
	.st1{fill:#94938F;stroke:#FFFFFF;stroke-miterlimit:10;}
	.st2{fill:#FFFFFF;stroke:#94938F;stroke-width:5;stroke-miterlimit:10;}
	.st3{fill:none;stroke:#94938F;stroke-miterlimit:10;}
	.st4{fill:#FFFFFF;stroke:#94938F;stroke-width:10;stroke-miterlimit:10;}
	.st5{fill:none;stroke:#FFFFFF;stroke-width:5;stroke-miterlimit:10;}
	.st6{fill:none;stroke:#000000;stroke-width:5;stroke-miterlimit:10;}
	.st7{fill:none;stroke:#94938F;stroke-width:10;stroke-miterlimit:10;}
	.st8{fill:none;stroke:#94938F;stroke-width:5;stroke-miterlimit:10;}
	.st9{display:none;}
	.st10{display:inline;}
</style>
<g id="Ebene_12">
	<circle class="st0" cx="959" cy="549" r="500"/>
	<circle class="st1" cx="959" cy="550" r="500"/>
</g>
<g id="Ebene_11">
	<path class="st2" d="M1170.9,1003c-64.3,30.2-136.2,47-211.9,47c-276.1,0-500-223.9-500-500c0-32.8,3.2-64.9,9.2-95.9"/>
	<polyline class="st2" points="466.5,454.5 1171.5,454.5 1171.9,1003 	"/>
	<path class="st3" d="M468.2,454.1C512.9,223.8,715.7,50,959,50c75.5,0,147.2,16.8,211.4,46.7"/>
	<path class="st3" d="M1409.4,332.6c31.8,65.7,49.6,139.5,49.6,217.4c0,200.4-117.9,373.2-288.1,453"/>
	<path class="st4" d="M1169.4,96.7c104.3,48.7,188.9,132.3,239,235.8l0.1-0.1L1176,498v-43l-117.5-0.5l-130,75v128l-200,147l28-441
		l413-267"/>
</g>
<g id="Ebene_1">
	<path class="st0" d="M483.1,398.3"/>
	<path class="st5" d="M474.3,468.6"/>
	<path class="st5" d="M1105.5,450.5"/>
	<path class="st5" d="M1026.5,528.5"/>
	<path class="st5" d="M1105.5,450.5"/>
	<path class="st2" d="M1424.6,364"/>
	<path class="st6" d="M474.3,425.6"/>
	<line class="st7" x1="1059.5" y1="564.8" x2="1059.5" y2="1033.9"/>
	<polyline class="st7" points="1059.5,569.8 1059.5,529.4 929.5,529.4 	"/>
	<path class="st6" d="M929.5,529.4"/>
	<line class="st7" x1="459" y1="529.4" x2="746" y2="529.5"/>
	<path class="st8" d="M1129.5,482.5c0,0-60,67,8,116c66.8,48.2,14,98,0,108c-9.9,7.1-60.8,52.5,0,93c57,38,24,85,0,101
		c-14.4,9.6-63,51,0,87l33,15.5V454.5l-111-0.4"/>
	<line class="st8" x1="468" y1="454.1" x2="752" y2="454.5"/>
	<path class="st6" d="M911.5,269.5"/>
	<path class="st6" d="M849.5,269.5"/>
	<path class="st6" d="M821.5,269.5"/>
	<path class="st6" d="M874,617"/>
	<path class="st6" d="M922,454.1"/>
	<line class="st8" x1="1014.5" y1="478.5" x2="1026.5" y2="187.5"/>
	<path class="st6" d="M1220.4,460.7"/>
	<line class="st8" x1="1153.5" y1="450.5" x2="1170.5" y2="96.5"/>
	<line class="st8" x1="1386.5" y1="425" x2="1394.5" y2="303.5"/>
	<line class="st8" x1="1059.5" y1="529.5" x2="1170.5" y2="454.5"/>
	<line class="st8" x1="1277.5" y1="540.5" x2="1294.5" y2="186.5"/>
</g>
<g id="Ebene_10">
	<line class="st8" x1="869.5" y1="703.5" x2="892.5" y2="281.5"/>
	<path class="st6" d="M1042.3,180"/>
	<path class="st6" d="M1065.8,164.7"/>
	<path class="st6" d="M1197,476.6"/>
	<path class="st6" d="M1137.9,476.6"/>
	<path class="st6" d="M458.5,482.4"/>
	<line class="st8" x1="750" y1="482.4" x2="465.5" y2="482.4"/>
	<line class="st8" x1="1010.6" y1="482.4" x2="1129.1" y2="482.4"/>
	<path class="st6" d="M285.5,499.4"/>
	<line class="st8" x1="748.6" y1="499.4" x2="461.4" y2="499.4"/>
	<path class="st6" d="M748.6,499.4"/>
	<polyline class="st8" points="981.3,499.4 1104,499.4 1104.5,1029 	"/>
	<path class="st6" d="M1129.5,482.5"/>
	<path class="st6" d="M1137.5,971.5"/>
	<path class="st8" d="M1103.5,499.5c0,0-44,33-44,49.5s0,32.5,22,37.5s34,40,0,55c-31.5,13.9-21.2,50.2,0,56c22,6,36,48,0,58
		c-33.9,9.4-20.6,49,0,49c22,0,36,45,0,49s-22.7,50,0,48c23-2,33,49,0,54c-32.8,5-28,53,22,58"/>
	<circle class="st7" cx="959" cy="549" r="500"/>
</g>
<g id="Ebene_9" class="st9">
</g>
<g id="Ebene_8" class="st9">
	<g id="Ebene_7" class="st10">
	</g>
	<g id="Nadel" class="st10">
		<g id="Ebene_2">
			<path class="st1" d="M902.5,272.5"/>
			<path class="st1" d="M959.5,316.5"/>
		</g>
	</g>
	<g id="Faden" class="st10">
		<g id="Ebene_6">
		</g>
	</g>
	<g id="Fadenschatten" class="st10">
		<path class="st3" d="M1041.9,69.1c-6.9,6.9-7.6,7.7-7.6,7.7"/>
	</g>
</g>
</svg>
